PathFileType	4	(X/Y/Z)	C:\Git\research_data\torsion_deformities_healthy_kinematics\simulations\P01\post\Stand01\marker_experimental_HJC.trc
DataRate	CameraRate	NumFrames	NumMarkers	Units	OrigDataRate	OrigDataStartFrame	OrigNumFrames
150	150	2	231	mm	150	76	150
Frame#	Time	LFHD			LBHD			RFHD			RBHD			C7			T10			CLAV			STRN			RBAK			LSHO			LUPA			LELB			LFRA			LWRB			LWRA			LFIN			RSHO			RUPA			RELB			RFRA			RWRB			RWRA			RFIN			SACR			LASI			RASI			LT1			LT2			LT3			LS1			LS2			LS3			LHEE			LTOE			RT1			RT2			RT3			RS1			RS2			RS3			RHEE			RTOE			PELO			PELA			PELL			PELP			SACO			SACA			SACL			SACP			LFEO			LFEA			LFEL			LFEP			RFEO			RFEA			RFEL			RFEP			LTIO			LTIA			LTIL			LTIP			RTIO			RTIA			RTIL			RTIP			LFOO			LFOA			LFOL			LFOP			RFOO			RFOA			RFOL			RFOP			LTOO			LTOA			LTOL			LTOP			RTOO			RTOA			RTOL			RTOP			HEDO			HEDA			HEDL			HEDP			LCLO			LCLA			LCLL			LCLP			RCLO			RCLA			RCLL			RCLP			TRXO			TRXA			TRXL			TRXP			LHUO			LHUA			LHUL			LHUP			LRAO			LRAA			LRAL			LRAP			LHNO			LHNA			LHNL			LHNP			RHUO			RHUA			RHUL			RHUP			RRAO			RRAA			RRAL			RRAP			RHNO			RHNA			RHNL			RHNP			LPelvisAngles			RPelvisAngles			LFootProgressAngles			RFootProgressAngles			LHipAngles			RHipAngles			LKneeAngles			RKneeAngles			LAnkleAngles			RAnkleAngles			LFFootAngles			RFFootAngles			LAbsAnkleAngle			RAbsAnkleAngle			RNeckAngles			LNeckAngles			RSpineAngles			LSpineAngles			LShoulderAngles			LElbowAngles			LWristAngles			RShoulderAngles			RElbowAngles			RWristAngles			RThoraxAngles			LThoraxAngles			RHeadAngles			LHeadAngles			LHipPower			LKneePower			LAnklePower			RHipPower			RKneePower			RAnklePower			LWaistPower			RWaistPower			LNeckPower			RNeckPower			LShoulderPower			RShoulderPower			LElbowPower			RElbowPower			LWristPower			RWristPower			F_ForcePlate1			F_ForcePlate2			F_ForcePlate3			LGRF			RGRF			LHipForce			RHipForce			LKneeForce			RKneeForce			LAnkleForce			RAnkleForce			LWaistForce			RWaistForce			LNeckForce			RNeckForce			LShoulderForce			RShoulderForce			LElbowForce			RElbowForce			LWristForce			RWristForce			LNormalisedGRF			RNormalisedGRF			LGroundReactionForce			RGroundReactionForce			LHipMoment			RHipMoment			LKneeMoment			RKneeMoment			LAnkleMoment			RAnkleMoment			LWaistMoment			RWaistMoment			LNeckMoment			RNeckMoment			LShoulderMoment			RShoulderMoment			LElbowMoment			RElbowMoment			LWristMoment			RWristMoment			LKNE			RKNE			LANK			RANK			LKJC			RKJC			LAJC			RAJC			LTHI			RTHI			LTIB			RTIB			P_ForcePlate1			P_ForcePlate2			P_ForcePlate3			CentreOfMass			CentreOfMassFloor			funktRKJC			funktLKJC			funktRHIP			funktLHIP			LHJC			RHJC			LHF		
		X1	Y1	Z1	X2	Y2	Z2	X3	Y3	Z3	X4	Y4	Z4	X5	Y5	Z5	X6	Y6	Z6	X7	Y7	Z7	X8	Y8	Z8	X9	Y9	Z9	X10	Y10	Z10	X11	Y11	Z11	X12	Y12	Z12	X13	Y13	Z13	X14	Y14	Z14	X15	Y15	Z15	X16	Y16	Z16	X17	Y17	Z17	X18	Y18	Z18	X19	Y19	Z19	X20	Y20	Z20	X21	Y21	Z21	X22	Y22	Z22	X23	Y23	Z23	X24	Y24	Z24	X25	Y25	Z25	X26	Y26	Z26	X27	Y27	Z27	X28	Y28	Z28	X29	Y29	Z29	X30	Y30	Z30	X31	Y31	Z31	X32	Y32	Z32	X33	Y33	Z33	X34	Y34	Z34	X35	Y35	Z35	X36	Y36	Z36	X37	Y37	Z37	X38	Y38	Z38	X39	Y39	Z39	X40	Y40	Z40	X41	Y41	Z41	X42	Y42	Z42	X43	Y43	Z43	X44	Y44	Z44	X45	Y45	Z45	X46	Y46	Z46	X47	Y47	Z47	X48	Y48	Z48	X49	Y49	Z49	X50	Y50	Z50	X51	Y51	Z51	X52	Y52	Z52	X53	Y53	Z53	X54	Y54	Z54	X55	Y55	Z55	X56	Y56	Z56	X57	Y57	Z57	X58	Y58	Z58	X59	Y59	Z59	X60	Y60	Z60	X61	Y61	Z61	X62	Y62	Z62	X63	Y63	Z63	X64	Y64	Z64	X65	Y65	Z65	X66	Y66	Z66	X67	Y67	Z67	X68	Y68	Z68	X69	Y69	Z69	X70	Y70	Z70	X71	Y71	Z71	X72	Y72	Z72	X73	Y73	Z73	X74	Y74	Z74	X75	Y75	Z75	X76	Y76	Z76	X77	Y77	Z77	X78	Y78	Z78	X79	Y79	Z79	X80	Y80	Z80	X81	Y81	Z81	X82	Y82	Z82	X83	Y83	Z83	X84	Y84	Z84	X85	Y85	Z85	X86	Y86	Z86	X87	Y87	Z87	X88	Y88	Z88	X89	Y89	Z89	X90	Y90	Z90	X91	Y91	Z91	X92	Y92	Z92	X93	Y93	Z93	X94	Y94	Z94	X95	Y95	Z95	X96	Y96	Z96	X97	Y97	Z97	X98	Y98	Z98	X99	Y99	Z99	X100	Y100	Z100	X101	Y101	Z101	X102	Y102	Z102	X103	Y103	Z103	X104	Y104	Z104	X105	Y105	Z105	X106	Y106	Z106	X107	Y107	Z107	X108	Y108	Z108	X109	Y109	Z109	X110	Y110	Z110	X111	Y111	Z111	X112	Y112	Z112	X113	Y113	Z113	X114	Y114	Z114	X115	Y115	Z115	X116	Y116	Z116	X117	Y117	Z117	X118	Y118	Z118	X119	Y119	Z119	X120	Y120	Z120	X121	Y121	Z121	X122	Y122	Z122	X123	Y123	Z123	X124	Y124	Z124	X125	Y125	Z125	X126	Y126	Z126	X127	Y127	Z127	X128	Y128	Z128	X129	Y129	Z129	X130	Y130	Z130	X131	Y131	Z131	X132	Y132	Z132	X133	Y133	Z133	X134	Y134	Z134	X135	Y135	Z135	X136	Y136	Z136	X137	Y137	Z137	X138	Y138	Z138	X139	Y139	Z139	X140	Y140	Z140	X141	Y141	Z141	X142	Y142	Z142	X143	Y143	Z143	X144	Y144	Z144	X145	Y145	Z145	X146	Y146	Z146	X147	Y147	Z147	X148	Y148	Z148	X149	Y149	Z149	X150	Y150	Z150	X151	Y151	Z151	X152	Y152	Z152	X153	Y153	Z153	X154	Y154	Z154	X155	Y155	Z155	X156	Y156	Z156	X157	Y157	Z157	X158	Y158	Z158	X159	Y159	Z159	X160	Y160	Z160	X161	Y161	Z161	X162	Y162	Z162	X163	Y163	Z163	X164	Y164	Z164	X165	Y165	Z165	X166	Y166	Z166	X167	Y167	Z167	X168	Y168	Z168	X169	Y169	Z169	X170	Y170	Z170	X171	Y171	Z171	X172	Y172	Z172	X173	Y173	Z173	X174	Y174	Z174	X175	Y175	Z175	X176	Y176	Z176	X177	Y177	Z177	X178	Y178	Z178	X179	Y179	Z179	X180	Y180	Z180	X181	Y181	Z181	X182	Y182	Z182	X183	Y183	Z183	X184	Y184	Z184	X185	Y185	Z185	X186	Y186	Z186	X187	Y187	Z187	X188	Y188	Z188	X189	Y189	Z189	X190	Y190	Z190	X191	Y191	Z191	X192	Y192	Z192	X193	Y193	Z193	X194	Y194	Z194	X195	Y195	Z195	X196	Y196	Z196	X197	Y197	Z197	X198	Y198	Z198	X199	Y199	Z199	X200	Y200	Z200	X201	Y201	Z201	X202	Y202	Z202	X203	Y203	Z203	X204	Y204	Z204	X205	Y205	Z205	X206	Y206	Z206	X207	Y207	Z207	X208	Y208	Z208	X209	Y209	Z209	X210	Y210	Z210	X211	Y211	Z211	X212	Y212	Z212	X213	Y213	Z213	X214	Y214	Z214	X215	Y215	Z215	X216	Y216	Z216	X217	Y217	Z217	X218	Y218	Z218	X219	Y219	Z219	X220	Y220	Z220	X221	Y221	Z221	X222	Y222	Z222	X223	Y223	Z223	X224	Y224	Z224	X225	Y225	Z225	X226	Y226	Z226	X227	Y227	Z227	X228	Y228	Z228	X229	Y229	Z229	X230	Y230	Z230	X231	Y231	Z231	

76	0.500000	-334.423462	1545.610962	1298.211670	-332.828796	1521.549927	1158.925049	-461.117493	1543.044922	1305.828857	-483.713928	1518.428345	1179.976929	-400.365906	1406.409302	1148.532104	-393.230957	1226.104126	1085.506226	-406.602936	1338.715088	1265.826538	-407.683777	1302.340576	1286.337036	-507.830170	1267.840332	1076.010254	-254.082413	1379.831299	1181.795898	-145.981689	1189.254028	1152.140747	-88.577469	1113.652588	1172.487061	-42.293793	1070.366333	1193.628296	47.377277	939.602966	1269.857300	21.004595	947.742737	1333.930420	76.480217	898.842651	1351.399170	-554.510864	1367.931030	1174.783203	-622.548706	1281.947021	1155.431030	-694.333069	1093.178955	1144.394165	-817.927918	952.554199	1199.911743	-843.544861	910.357666	1217.952393	-843.356323	935.824890	1283.639038	-901.986572	884.392334	1292.771729	-393.748077	971.696716	1080.986084	-254.344818	934.209778	1267.561157	-540.586182	934.251404	1258.544067	-206.431686	643.665772	1237.532471	-191.142105	553.411499	1156.016357	-235.522476	567.032410	1291.668457	-202.926849	258.316071	1178.802002	-188.114609	179.686569	1086.729126	-227.651184	178.559723	1223.341309	-275.515808	39.373676	1091.231201	-226.288925	38.897461	1252.053711	-583.742737	661.054810	1196.492432	-555.156494	589.642334	1099.277954	-582.725159	572.247009	1239.357666	-577.096802	267.634613	1153.347778	-555.179199	202.921967	1053.309448	-571.261108	182.453400	1193.135986	-495.230804	41.294678	1085.127930	-539.850281	39.893093	1246.241577	-395.389648	848.755310	1197.714722	-395.856232	845.709412	1212.511230	-382.800995	848.753479	1198.111328	-396.170959	972.120178	1223.085083	-393.577545	959.612976	1139.749023	-393.771973	958.343872	1145.914185	-387.283203	959.612060	1139.947388	-393.968201	1021.295410	1152.434204	-281.669190	469.714386	1217.920166	-274.933594	472.417481	1255.517090	-244.318741	474.380859	1210.893188	-332.448608	848.809143	1199.761719	-498.680542	474.022613	1205.909180	-505.879578	475.808167	1242.870728	-461.896515	470.262054	1213.255249	-458.330627	848.701477	1195.667969	-266.433838	45.458954	1149.491821	-248.418304	40.705494	1182.974365	-231.516418	49.647217	1131.298828	-280.462402	436.109924	1212.500122	-505.385651	50.520103	1142.056152	-521.057800	45.366734	1177.881348	-469.196930	47.623055	1157.470581	-499.211670	440.477753	1200.851563	-227.027313	49.232616	1252.767212	-227.978073	62.540981	1253.685913	-214.278854	50.410297	1248.900513	-266.313355	55.241009	1125.070068	-539.502502	50.056526	1247.197632	-539.051636	63.232380	1248.437012	-526.728332	49.299202	1250.601929	-504.919647	60.853851	1119.833130	-214.129425	47.606358	1294.796997	-214.429657	51.809002	1295.087158	-210.103592	47.978256	1293.575928	-226.535584	49.503971	1254.471680	-550.866577	46.851433	1289.126465	-550.724243	51.012234	1289.517822	-546.832642	46.612308	1290.201538	-539.945373	50.260986	1248.906128	-409.899689	1443.538696	1128.002686	-392.356110	1484.201172	1349.484009	-184.884445	1448.947754	1109.186157	-418.591278	1665.647949	1087.913452	-257.739380	1333.050781	1179.111206	-178.652252	1318.357910	1327.405762	-244.612625	1500.969482	1188.747803	-406.180725	1340.071777	1258.972290	-546.764282	1321.653931	1172.059570	-631.272888	1299.182007	1313.516602	-519.353882	1157.908447	1162.422241	-406.180725	1340.071777	1258.972290	-406.180664	1340.071777	1258.972290	-416.285309	1307.607178	1422.989990	-573.317444	1337.521362	1248.170654	-401.589844	1175.762817	1226.732788	-120.623863	1095.234253	1170.816162	-209.265320	1053.073730	914.317993	-341.459137	964.497925	1268.622192	-257.739441	1333.050781	1179.111206	29.853699	938.289978	1300.792480	35.415829	791.254822	1116.810547	-159.577850	826.144959	1384.689941	-110.090408	1084.248047	1179.914551	95.800346	833.445068	1391.909058	207.979767	933.127075	1425.418945	177.717804	781.342529	1272.667725	29.853737	938.290039	1300.792480	-662.302429	1077.323486	1153.967407	-502.312195	1017.229492	943.811279	-847.849731	1177.648438	984.023804	-546.764282	1321.653931	1172.059570	-838.534424	918.440369	1252.584839	-779.799560	752.791138	1090.667236	-1002.226624	1006.948425	1102.658325	-674.638672	1066.201660	1160.870605	-935.627136	826.482178	1340.887817	-1059.161499	921.776733	1304.295898	-904.115051	916.722839	1469.512573	-838.534424	918.440308	1252.584839	-0.355412	1.768998	-11.621043	0.355412	-1.768998	-11.621043	-4.265331	-17.082550	-2.693932	-2.021277	-15.139264	-4.845761	7.711509	-12.040824	-14.126309	6.083643	-9.259839	-13.385397	-3.237500	-16.474636	-12.709970	-3.112900	-11.418459	-10.968960	0.641315	10.627640	-5.676224	0.304906	8.179069	-3.398280	0.000000	0.000000	0.000000	0.000000	0.000000	0.000000	0.000000	0.000000	-9.291188	0.000000	0.000000	-8.725608	1.137258	-8.415001	21.301203	-1.137258	8.415001	21.301203	-1.244206	1.677142	0.445720	1.244206	-1.677142	0.445720	-29.070030	-29.496298	-6.207897	-0.000000	0.000000	-35.157581	10.996706	123.601028	-1.581050	-26.599249	-40.598713	-7.767269	0.000000	0.000000	-34.448746	8.234230	115.732788	-7.226701	1.570517	-3.459718	-11.101150	-1.570517	3.459718	-11.101150	2.205351	4.458134	-10.231357	-2.205351	-4.458134	-10.231357	0.000000	0.000095	0.000000	-0.000000	-0.000100	-0.000000	0.000000	0.000026	0.000000	-0.000000	-0.000015	-0.000000	-0.000000	-0.000055	-0.000000	0.000000	0.000023	0.000000	0.000000	0.000611	0.000000	0.000000	0.000611	0.000000	0.000000	0.005056	0.000000	0.000000	0.005056	0.000000	-0.000000	-0.000038	-0.000000	-0.000000	-0.000171	-0.000000	0.000000	0.000005	0.000000	0.000000	0.000187	0.000000	-0.000000	-0.000001	-0.000000	0.000000	0.000009	0.000000	-398.021027	1.304700	259.089996	-231.415008	1.697000	-251.317001	-396.987000	4.582600	-949.962036	0.000000	0.000000	0.000000	0.000000	0.000000	0.000000	-0.192960	1.563743	-0.111301	0.157293	1.569730	-0.074405	-0.063365	0.590416	0.074148	0.043943	0.591610	0.078250	-0.012533	-0.006380	0.141545	0.008136	-0.011599	0.141538	-0.000471	4.458297	0.919076	-0.000471	4.458297	0.919076	-0.138487	8.844565	1.752184	-0.138487	8.844565	1.752184	0.233925	0.424930	0.074979	-0.181716	0.442314	0.108552	0.103002	0.133843	0.134696	-0.079815	0.133453	0.149514	0.019909	0.040184	-0.038239	-0.033158	0.033774	-0.034918	0.000000	0.000000	0.000000	0.000000	0.000000	0.000000	0.000000	0.000000	0.000000	0.000000	0.000000	0.000000	-59.140823	-2.543012	13.551454	-46.233059	-1.682896	5.116312	-15.115526	0.799800	10.235128	-10.403916	0.541800	11.229532	-1.303361	0.730847	7.590539	-0.934604	0.510731	7.552433	-14.072606	-2.884485	-72.081810	14.072606	2.884485	-72.081810	-78.067070	-30.015825	927.575012	78.067070	30.015825	927.575012	-57.194302	-9.866396	36.254131	-44.037949	-7.762362	45.338097	-16.490170	-0.453671	22.145796	-12.965736	-0.519080	25.206274	-1.161805	0.000000	-2.232559	-2.016437	-0.000000	-2.120601	-226.925781	480.033905	1207.370728	-552.601318	482.185211	1195.012573	-230.598068	46.515099	1130.359985	-541.675476	47.070827	1125.684570	-281.669190	469.714386	1217.920044	-498.680542	474.022583	1205.909180	-266.584686	49.659500	1150.169312	-505.319244	54.713196	1142.688232	-195.007492	673.261169	1187.760132	-588.857788	672.643738	1178.750122	-168.695877	253.349243	1126.416992	-610.864807	254.190124	1125.210571	-398.021027	1.304700	259.089996	-231.415008	1.697000	-251.317001	-396.987000	4.582600	-949.962036	-397.845917	934.233215	1236.209717	-397.845917	0.000000	1236.209717	0.000000	0.000000	0.000000	0.000000	0.000000	0.000000	0.000000	0.000000	0.000000	0.000000	0.000000	0.000000	-293.425908	850.374660	1193.380956	-496.937969	850.404255	1186.969980	-0.192960	1.563743	-0.111301	
77	0.506667	-334.421936	1545.609985	1298.237305	-332.838287	1521.551147	1158.950684	-461.117340	1543.039551	1305.869751	-483.723297	1518.423218	1180.017700	-400.373383	1406.405396	1148.565308	-393.238800	1226.098633	1085.542725	-406.597687	1338.714478	1265.860840	-407.675720	1302.340210	1286.372437	-507.839966	1267.830444	1076.056519	-254.085236	1379.832275	1181.815063	-145.983078	1189.257446	1152.152710	-88.575050	1113.657349	1172.495361	-42.287457	1070.372314	1193.631958	47.394093	939.612854	1269.855591	21.029932	947.755554	1333.932739	76.509804	898.857605	1351.392456	-554.513733	1367.923584	1174.828125	-622.552002	1281.937866	1155.483887	-694.332642	1093.166626	1144.457153	-817.911072	952.533264	1200.007202	-843.527100	910.338318	1218.049927	-843.330078	935.805603	1283.738403	-901.954956	884.371399	1292.885376	-393.750092	971.699341	1081.034302	-254.344360	934.203735	1267.606323	-540.586731	934.247864	1258.590332	-206.434326	643.662048	1237.568481	-191.143433	553.412415	1156.041626	-235.523819	567.024841	1291.695801	-202.927948	258.315582	1178.811646	-188.116165	179.690491	1086.735596	-227.652191	178.556732	1223.347656	-275.517670	39.375256	1091.230469	-226.288712	38.897129	1252.053467	-583.745178	661.052246	1196.524414	-555.158997	589.645630	1099.304810	-582.727783	572.242493	1239.384888	-577.096191	267.635193	1153.356689	-555.177734	202.927734	1053.317871	-571.261658	182.451752	1193.142822	-495.230286	41.297020	1085.129028	-539.851623	39.892200	1246.242676	-395.390595	848.753296	1197.756836	-395.857178	845.706787	1212.553223	-382.801941	848.751343	1198.153442	-396.170837	972.117065	1223.132324	-393.577881	959.613342	1139.795776	-393.772278	958.343994	1145.960938	-387.283539	959.612366	1139.994019	-393.967987	1021.295288	1152.483398	-281.668976	469.711700	1217.935913	-274.933960	472.412170	1255.533203	-244.318543	474.378815	1210.909912	-332.449554	848.806580	1199.803467	-498.683014	474.019440	1205.929321	-505.881988	475.802826	1242.891113	-461.898865	470.258301	1213.275146	-458.331635	848.700012	1195.710327	-266.435272	45.459728	1149.493042	-248.419601	40.705067	1182.975220	-231.518036	49.648514	1131.300049	-280.462311	436.107727	1212.514771	-505.386352	50.520466	1142.060913	-521.058960	45.365784	1177.885498	-469.197968	47.622932	1157.475708	-499.213989	440.474945	1200.870483	-227.027161	49.232269	1252.767090	-227.978043	62.540607	1253.686035	-214.278793	50.410141	1248.900269	-266.315155	55.242477	1125.070679	-539.503845	50.055614	1247.198853	-539.052978	63.231457	1248.438599	-526.729675	49.298176	1250.603394	-504.918945	60.855659	1119.835205	-214.128494	47.605511	1294.796631	-214.428772	51.808147	1295.086914	-210.102692	47.977486	1293.575562	-226.535034	49.503944	1254.471436	-550.868530	46.849842	1289.127563	-550.726135	51.010632	1289.519043	-546.834595	46.610657	1290.202637	-539.946960	50.260323	1248.907349	-409.909424	1443.537354	1128.035645	-392.348694	1484.197510	1349.515991	-184.896027	1448.955933	1109.200073	-418.613556	1665.646484	1087.950073	-257.741394	1333.051636	1179.131836	-178.640167	1318.363892	1327.419922	-244.617584	1500.971558	1188.763428	-406.175964	1340.071045	1259.006470	-546.765869	1321.646606	1172.104980	-631.263062	1299.175537	1313.569214	-519.351135	1157.901611	1162.469604	-406.176086	1340.071045	1259.006470	-406.176086	1340.071045	1259.006470	-416.264893	1307.609741	1423.026245	-573.314148	1337.515503	1248.220093	-401.583374	1175.761108	1226.770264	-120.621193	1095.238159	1170.828613	-209.289734	1053.068115	914.341431	-341.442596	964.499573	1268.662598	-257.741363	1333.051636	1179.131836	29.874659	938.301269	1300.793579	35.420326	791.260315	1116.815186	-159.545395	826.153931	1384.715332	-110.086494	1084.252563	1179.926147	95.837357	833.462891	1391.899902	208.017013	933.146301	1425.388062	177.734604	781.360718	1272.649292	29.874657	938.301269	1300.793701	-662.299805	1077.311890	1154.024048	-502.353149	1017.235657	943.827942	-847.889282	1177.640625	984.126587	-546.765869	1321.646606	1172.105103	-838.511963	918.421326	1252.682495	-779.813599	752.771973	1090.742554	-1002.244812	1006.934448	1102.793579	-674.634644	1066.189575	1160.930054	-935.583679	826.461060	1341.012207	-1059.132935	921.749084	1304.439819	-904.049194	916.712158	1469.628174	-838.511963	918.421265	1252.682495	-0.354950	1.768863	-11.623451	0.354950	-1.768863	-11.623451	-4.265709	-17.083607	-2.694630	-2.021469	-15.140145	-4.846713	7.712070	-12.039791	-14.124807	6.083469	-9.259934	-13.384368	-3.238456	-16.475845	-12.708119	-3.113629	-11.419518	-10.967772	0.641374	10.626806	-5.677462	0.305008	8.179026	-3.399437	0.000000	-0.000000	-0.000000	-0.000000	0.000000	-0.000000	0.000000	0.000000	-9.292308	0.000000	0.000000	-8.726803	1.136321	-8.414792	21.299183	-1.136321	8.414792	21.299183	-1.245469	1.671762	0.449360	1.245469	-1.671762	0.449360	-29.069658	-29.497370	-6.207691	-0.000000	0.000000	-35.157696	10.994635	123.599350	-1.579656	-26.599380	-40.589928	-7.766232	0.000000	0.000000	-34.451618	8.235083	115.727226	-7.228170	1.571147	-3.454308	-11.099964	-1.571147	3.454308	-11.099964	2.208541	4.462491	-10.230425	-2.208541	-4.462491	-10.230425	0.000000	0.000089	0.000000	-0.000000	-0.000097	-0.000000	0.000000	0.000026	0.000000	-0.000000	-0.000010	-0.000000	-0.000000	-0.000055	-0.000000	0.000000	0.000023	0.000000	0.000000	0.000614	0.000000	0.000000	0.000614	0.000000	0.000000	0.005129	0.000000	0.000000	0.005129	0.000000	-0.000000	-0.000034	-0.000000	-0.000000	-0.000173	-0.000000	0.000000	0.000004	0.000000	0.000000	0.000187	0.000000	-0.000000	-0.000001	-0.000000	0.000000	0.000007	0.000000	-398.021027	1.304700	259.089996	-231.415008	1.697000	-251.317001	-396.987000	4.582600	-949.962036	0.000000	0.000000	0.000000	0.000000	0.000000	0.000000	-0.192987	1.563751	-0.111183	0.157318	1.569732	-0.074314	-0.063373	0.590413	0.074169	0.043949	0.591607	0.078269	-0.012534	-0.006381	0.141545	0.008137	-0.011601	0.141538	-0.000430	4.458258	0.919264	-0.000430	4.458258	0.919264	-0.138749	8.844603	1.752004	-0.138749	8.844603	1.752004	0.233928	0.424925	0.074996	-0.181736	0.442321	0.108519	0.103002	0.133837	0.134701	-0.079833	0.133458	0.149509	0.019910	0.040182	-0.038240	-0.033157	0.033777	-0.034921	0.000000	0.000000	0.000000	0.000000	0.000000	0.000000	0.000000	0.000000	0.000000	0.000000	0.000000	0.000000	-59.147228	-2.543136	13.516880	-46.239319	-1.683160	5.089631	-15.117174	0.799892	10.239690	-10.405313	0.541842	11.234025	-1.303360	0.730913	7.590456	-0.934582	0.510768	7.552176	-14.066716	-2.884828	-72.156754	14.066716	2.884828	-72.156754	-78.106163	-30.044281	927.597717	78.106163	30.044281	927.597717	-57.194565	-9.866431	36.258564	-44.047047	-7.766125	45.331573	-16.490347	-0.453557	22.146528	-12.971301	-0.519194	25.205345	-1.161849	0.000000	-2.232499	-2.016303	0.000000	-2.120831	-226.925674	480.033264	1207.388062	-552.603821	482.182739	1195.033325	-230.599564	46.516624	1130.361084	-541.675903	47.071842	1125.688721	-281.668976	469.711700	1217.935913	-498.683014	474.019440	1205.929321	-266.586090	49.660244	1150.170654	-505.319946	54.713524	1142.693115	-195.007904	673.260376	1187.791626	-588.859802	672.643127	1178.782227	-168.697113	253.349991	1126.425049	-610.865295	254.190323	1125.221191	-398.021027	1.304700	259.089996	-231.415008	1.697000	-251.317001	-396.987000	4.582600	-949.962036	-397.843292	934.231201	1236.239258	-397.843292	0.000000	1236.239258	0.000000	0.000000	0.000000	0.000000	0.000000	0.000000	0.000000	0.000000	0.000000	0.000000	0.000000	0.000000	-293.426535	850.371689	1193.422925	-496.939262	850.403064	1187.012731	-0.192987	1.563751	-0.111183	
